<?xml version="1.0" encoding="UTF-8"?>
<svg id="SEAMS" xmlns="http://www.w3.org/2000/svg" xmlns:xlink="http://www.w3.org/1999/xlink" viewBox="0 0 325.84 325.84">
  <defs>
    <style>
      .cls-1 {
        fill: #fff;
      }

      .cls-2 {
        fill: #ff8228;
      }

      .cls-3 {
        fill: #231f20;
      }

      .cls-3, .cls-4, .cls-5, .cls-6, .cls-7 {
        fill-rule: evenodd;
      }

      .cls-8 {
        fill: none;
      }

      .cls-9 {
        fill: #b5761a;
      }

      .cls-10 {
        fill: #ffb020;
      }

      .cls-11 {
        font-size: 14.64px;
      }

      .cls-11, .cls-12, .cls-13, .cls-14, .cls-15, .cls-16 {
        font-family: Dynamo, Dynamo;
      }

      .cls-4 {
        fill: #ec1c24;
      }

      .cls-12 {
        font-size: 14.64px;
      }

      .cls-5, .cls-17 {
        fill: #fff100;
      }

      .cls-6 {
        fill: #00a551;
      }

      .cls-13 {
        font-size: 14.64px;
      }

      .cls-18 {
        fill: #d9e9f7;
      }

      .cls-14 {
        font-size: 14.64px;
      }

      .cls-15 {
        font-size: 14.64px;
      }

      .cls-7 {
        fill: #00adee;
      }

      .cls-16 {
        font-size: 14.64px;
      }

      .cls-19 {
        fill: #19348e;
      }
    </style>
    <clipPath id="clippath">
      <rect class="cls-8" x="805.03" y="421.59" width="773.4" height="1145.51"/>
    </clipPath>
  </defs>
  <path class="cls-1" d="M162.22,16.98c1.41-.2,2.7-.36,4.08.18l124.09,39.33.76,1.55c5.19,64.35,1.02,126.78-36.07,181.32-18.54,27.27-51.34,51.82-81.6,64.85-2.24.96-8.75,3.98-10.67,4-4.17.04-21.73-8.31-26.35-10.7C49.91,252.86,28.78,161.14,32.88,70.35c.19-4.24.84-9.1,1.56-13.08l127.78-40.29ZM287.21,63.13l-124.41-39.4L40.6,61.89c-5.91,30.01-5.48,62.96.25,93.06,10.45,54.91,41,101.78,88.95,130.73,4.7,2.84,28.28,15.69,32.15,15.54,1.32-.05,6.12-1.72,7.81-2.26,45.96-14.78,83.96-56.05,100.55-100.64l-9.63-8.84c-1.01,5.35-9.25,4.25-13.39,2.98-1.7-2.7,4.37-8.97,2.63-12.27-1.03-1.63-15.35,3.56-12.38-2.29,1.12-2.21,2.91-.63,4.21-1.15,3.26-1.31,5.53-7.09,10.06-5.78-4.81-5.9,2.13-11.09,5.41-4.21.09.84-.37,2.67-.96,3.26-.85.85-2.96.33-2.9,1.71,1.23,0,2.48-.21,3.48.76,1.76,1.71,4.48,9.83,6.99,13.05,1.14,1.46,6.26,6.39,7.66,6.99,1.23.53,1.04-.43,1.31-.96,1.6-3.16,3.15-9.12,4.24-12.74,11.13-36.96,12.48-77.4,10.17-115.72ZM259.53,188.71c.55-.69-2.75-6.24-4.66-4.28l-1.5,3.5,6.16.78Z"/>
  <path class="cls-1" d="M160.71,84.1c58.01-3.28,96.81,60.67,64.46,109.93-31.44,47.87-106.56,40.75-127.64-12.51-18.15-45.85,14.64-94.67,63.19-97.42ZM161.63,102.38l-6.93.77c.33,2.62,2.46,4.94,1.08,7.64l.87,1.61,2.68-.78-.78-3.08,3.77-1.22-.69-4.95ZM170.78,111.52l.54-8.42-6.6-.73v9.26s6.06-.11,6.06-.11ZM180.14,113.93c-2.09-3.13,1.39-5.21,1.22-8.51l-6.61-2.27c.25,3.14-.44,6.29-2.3,8.87l3.06,1.16,1.54-3.09.37,3.09,2.71.76ZM152.39,107.77l-1.21-3.01-5.73,1.48c.18,4.37,2.24,4.47,6.17,4.62.75,3.25-3.42.26-3.85.77v3.08c3.05.75,8.75-2.19,5.19-5.2-1.45-1.22-5.8.2-5.19-2.49,3.05-1.62,1.55,1.25,4.62.76ZM192.47,110.1l-6.69-3.01-2.56,2.99,3.85-.38c-1.44,2.77-6.9,7.33-.77,7.33-.07-1.12,2.01-8.53,3.49-6.17l.75,2.31,1.94-3.07ZM140.05,108.54c-6.83.54.38,4.1-.77,5.4-1.25-.68-4.9-4.08-6.16-2.3-1.12,1.57,4.97,5.79,3.86,8.47l3.09-1.17-3.09-4.22c1.1-.99,5.57,4.9,6.17,1.9.47-2.34-4.1-5.11-3.09-8.08ZM192.47,117.02l-3.08,1.92,4.9,3.42,2.58-2.63-2.07-4.64,1.53-.78,1.92,3.47,1.91-1.91c-5.97-6.36-8.07-3.44-6.15,4.24l-1.54-3.08ZM129.49,124.49c3.12,2.62,7.42-1.12,5.21-4.81-.48-.8-4.12-4.23-5.05-4.22l-4.18,3.6c-.06.37,3.56,5.05,4.02,5.43ZM208.66,126.26l-3.58-5.3c-5.2,2.87-9.27,4.39-3.71,9.93,3.19-.83,3.4-3.95-.4-2.3l-.74-1.95,4.22-3.44,1.88,1.17-.75,2.66,3.08-.77ZM124.64,125.49c-.27-5.3-5.78.68-5.04,2.33,1.3,1.52,6.11,5.89,8.04,4.52l2.38-4.15-3.07-1.15c1.47,5.63-3.46,2.38-5.38-.39l3.07-1.16ZM211.75,132.43l-1.16-3.85c-1.92,2.59-4.18,2.97-6.97,3.85-.82.26-1.4-.56-1.11,1.13l2.71,5.07c3.56-.53,4.74-4.04.36-2.33l.12-2.2,6.05-1.66ZM125.41,133.99c-.09-.11-1.92-.15-2.84-.61-1.21-.59-5.07-3.68-5.63-3.25l-.42,3.11c2.04.64,4.19,1.11,6.04,2.29.64.41.52,1.45.58,1.49,1.42.88,3.03-2.12,2.27-3.03ZM207.89,141.7c3.17-1.19,9.39.37,6.93-4.63l-8.41,3.15c-.04,9.89,4.6,4.05,10.73,4.55l-.78-3.08-7.21,2.38-1.26-2.37ZM123.87,138.61c-1.78-.33-3.25-1.58-4.62.38l1.91,2.7-7.3-3.09-.79,3.85c3.17-.41,5.43.95,8.08,2.32l2.72-6.16ZM121.56,146.32c-3.91,1.63-10.45-4.37-10.02,1.53,3.52-.48,6.06.36,9.24,1.55l.78-3.08ZM217.91,147.86l-10.02.77.77,6.93,9.26-.77v-6.94ZM171.66,148.63h-3.86s-3.5,30.11-3.5,30.11l4.27.72-1.5-3.48c2.95-2.17,5.78-3.94,6.3-7.89l1.77-.66,2.68,1.24-2.01-3.11c4.92-10.59,18.52-.35,10.81,6.91-3.65,3.44-8.28.84-11.11-2.25.77,4.63,6.5,3.19,3.85,8.48,1.73-.3,1.25-2.8,2.29-3.49,1.3-.87,3.73,0,5.82-1.88,9.58-8.63-9.28-21.5-12.74-6.69l-1.53.5c.87-2.89-3.42-5.28-3.68-6.64-.4-2.08,2.59-11.47,2.13-11.86ZM113.85,150.17h-3.08c-.82,8.42,2.93,9.26,7.32,2.32,3.31,2.89-1.3,1.78-1.15,4.61l2.99-.09.79-4.78c-4.46-5.27-4.41,1.88-8.4,2.56l1.53-4.62ZM200.95,182.55l3.07-.39-2.68-2.68-4.99,6.55,3.06,1.92.38-3.07,5.78,5.39,1.55-3.85c-2.63.05-4.96-1.58-6.16-3.85ZM131.58,186.39l-4.24-5.36c-3.59,2.36-2.32,4.06-1.93,7.68h-2.3s-.01-3.85-.01-3.85l-2.36,1.24c-.14,1.37,2.04,4.96,3.51,4.97,3.74-.89,2.62-4.83,2.72-7.75,2.01.79,2.27,1.96,1.54,3.85l3.08-.77ZM134.66,189.46l-2.29-2.29c-1.15,2.89-3.24,5.6-6.18,6.54l3.07,1.93c.4-2.72,2.64-5.53,5.4-6.18ZM196.32,187.17l-4.47,2.44c-.66,1.11.1,3.55,1.35,4.09l5.43-.37c.83,2.99-3.92,1.29-3.83,2.69.21,3.31,6.08,0,6.18-2.31l-2.04-2.52-5.69.58c-.41-3.13,2.79-1.28,3.47-2.31l-.4-2.31ZM138.52,192.56l-.76-1.93c-2.97-1.47-1.96.55-3.04,2.34-1.06,1.75-2.41,3.22-3.89,4.61l5.37,3.47.77-3.85c-5.21,4.28-2.32-5.33,1.55-4.63ZM190.16,191.79l-9.25,3.86c-.75,1.91,1.35,1.28,1.55,2.03.36,1.36-.21,3.39-.01,4.89-2.38-1.13-3.26-3.67-3.08-6.17l-2.3.81,1.53,6.9c-1.42,1.79-3.7-5.38-3.08-6.16l-3.08.78,4.7,8.41,3-.73-.77-3.84,2.32,3.08,2.17-.91.14-9.11c1.15-1.32,5.31,5.47,4.63,6.94l5.3-2.4-.28-2.25-1.94-.76-1.16,3.07-3.46-5,3.47-1.15-.4-2.31ZM144.64,196.37l-.71-1.89-2.32-.37c1.82,3.36-2.74,5.26-3.08,8.47,4.38,2.28,2.15-5.78,6.12-6.21ZM152.39,197.96l-6.16-1.55c-.81,5.88-5.63,10.27,3.85,10.02v-2.31s-3.85.76-3.85.76c-.42-4.39,1.91-9.06,5.38-3.85l.78-3.08ZM160.1,199.5l-6.14-.76-1.54,9.2c1.75.08,5.4,1.82,6.57.07l1.12-8.52ZM168.57,208.75l.43-9.26-2.73-.75.76,5.39c-2.69-1.74-1.83-5.58-6.16-4.62,2.5,2.81,1.61,5.94.77,9.24h3.08s-.76-5.39-.76-5.39c2.52,1.43,1.15,4.94,4.61,5.4Z"/>
  <path class="cls-1" d="M156.24,44.56c1.6-4.71,3.08-10.1,5.04-14.63.59-1.37.78-3.65,2.65-3.1l6.16,18.13,18.52,1.15c.47,1.79-.43,1.29-.98,1.76-2.25,1.94-13.07,8.72-13.55,10.34l3.73,18.73-15.79-10.54-15.8,9.76,5.13-18.13c-.13-1.32-11.03-8.99-12.85-10.76-.83-.81-1.79-1.35-1.53-2.71h19.27Z"/>
  <path class="cls-1" d="M151.62,271.57c-.07.28-1.27,1.35-1.53,1.15-.88-3.14-1.74-14.14.36-16.2,5.01-2.52,8.24.16,6.58,5.41l5.25-4.23c.13-1.58-4.77-5.9-5.45-7.52-.59-1.39-.46-4.24-.62-4.39-.3-.3-2.36.41-3.44-.8-4.59-5.11,9.24-11.24,6.57-.79.47.42,8.36-1.3,9.44-1.73,3.39-1.35,12.55-15.92,11.98-4.58-5.34,3.04-8.78,9.48-14.47,11.73.34,2.43,2.82,4.04,3.07,6.61.25,2.59-1.53,5.96-1.58,9.17-.06,3.72,3.16,9.01-1.11,8.95-4.1-.06-4.17-6.98-4.24-10.09l-4.61,8.15-5.4-.44v-14.65h-.77c-.66,3.94.89,10.75,0,14.26Z"/>
  <path class="cls-1" d="M207.88,42.25l3.83,11.98,13.14,1.13-9.92,8.22,2.21,13.35-10.46-6.95-11.89,6.18,3.35-12.9-9.5-8.3c.96-1.49,1.23-.84,2.29-.79,3.67.16,7.17.6,10.83.02.91-.69,3.1-8.9,4.39-10.96.5-.79-.04-1.35,1.73-.98Z"/>
  <path class="cls-1" d="M259.54,127.05c-.11,1.23,1.68.95,2.38,1.85,1.69,2.16.12,4.6-1.6,6.24,1.33,1.84,4.78,1.09,6.16,2.33.75.67.53,1.98.98,2.46.57.6,2.5.29,3.28,1.74,3.48,6.52-9.96,8.99-6.57-.75l-5.4-.77c-1.02,2.96,1.7,4.65,2.17,6.72,1.01,4.42-2.7,8.16-3.01,12.48-.3.25-2.04.2-2.61.07-5.02-1.14,2.78-9.46.35-13.1-1.5-.11-.39,2.08-1.1,3.12-.89,1.31-10.61.06-11.67-.75-4.31-3.26,2.94-4.84,5.84-3.92-1.73-3.1.51-6.12.47-8.09-.05-2.09-4.73-6.95-3.22-8.91,4.11-1.64,8.53-2.02,12.78-.73-7.44-8.17,7.35-11.39,6.19-3.51-.36,2.46-3.14,3.9-5.41,3.52Z"/>
  <path class="cls-1" d="M113.46,54.58c1.34-.43,3.59-9.42,4.82-11.35.49-.78-.05-1.36,1.73-.99l3.83,11.98,13.14,1.13-9.92,8.22,2.21,13.35-10.46-6.96-11.89,6.19,3.69-12.63-9.86-8.95h12.72Z"/>
  <path class="cls-1" d="M81.47,167.88l7.56,4.01.92,9.87-3.51-.72c-1.22-1.79,1.3-7.65-3.42-7.75.62,2.65-.4,5.06.18,7.91,1.24,6.07,8.32,6.62-3.26,12.13,4.58,5.01-2.43,10.07-5.78,4.6-.99,2.74-2.63,1.83-5.01,1.55l5.23-18.91c-.17-1.12-6.25-2.81-5.69-5.02.53-2.09,6.24-7.45,8.95-6.91-6.97-8.06,7.97-11.3,3.85-.77ZM77.63,192.56c-2.33-4.23,6.86-3.92,1.14-8.47-1.65-.35-1.02.68-1.35,1.69-.68,2.13-.78,4.5-2.1,6.4l2.31.37Z"/>
  <path class="cls-1" d="M62.86,113.28c.27.17.83,2.09.8,2.59-.25,4.34-5.42,4.51-6,6.28-1.07,3.28,2.63,4.73,5.32,4.11-3.83-12.19,10.03-5.24,5.02-.75-1.07.96-2.8.18-2.71,1.52,2.1.08,4.13.12,6.21-.33,2.91-.64,5.52-4.28,7.66-1.57-1.58,3.82-5.25,5.62-9.25,4.99.19,2.9-.27,5.98.01,8.86.4,4.14,5.02,16.47-3.02,14.19-.36-2.12.47-9.45-.86-10.71-1.57-1.49-2.4,4.24-2.92,5.16-1.02,1.83-6.52,9.14-7.85,4.43-.48-1.7,3.76-5.83,4.58-8.48,1.32-4.27.66-8.57.86-12.98-.27-1-3.59-.65-4.5-1.42-.69-.58-.46-2.27-1.14-2.76-.69-.49-3.61.55-1.78-3.65.68-1.55,2.25-1.52,2.8-2.41,1.12-1.82.08-5.12,1.79-6.48.96-.76,4.09-1.14,4.97-.58Z"/>
  <path class="cls-1" d="M108.46,222.62c1.01.98,11.84-7.61,13.09-3.46.92,3.05-7.18,4.67-8.43,6.91l13.42,15.84c1.33,1.86-.01,4.27-1.92,3.46-2.16-.92-7.24-8.81-9.6-8.86-7.29-.15-4.43,9.42-5.03,10.01h-3.86c.52-4.54-1.95-9.71,3.07-11.95-5.27-8.73-9.18.8-15.4-3.1-.17-.89,3.7-6.12,4.41-6.57,2.43-1.54,3.12,1.06,5.6.8.43-1.9-2.35-2.42-2.2-4.1.48-5.18,7.2-4.03,6.83,1.02Z"/>
  <path class="cls-1" d="M222.54,230.33c-.08-1.73-.95-1.7.4-3.79,1.76-2.72,8.5-7.21,9.29-8.54.72-1.23-2.29-4.91,3.33-5.78,4.43-.69,4.36,7.92-1.46,6.56l.77,5.39,6.98.34.4,3.56c-.75,1.05-12.35,1.96-12.38-1.6-3.84,2.84,3.47,5.68,3.28,8.1-3,2.39-9.11,12.65-12.06,6.28l5.26-6.96c-.12-.71-2.93-3.16-3.8-3.58.05.95.95,1.83.41,3.06-.24.55-7.92,8.24-8.46,8.55-1.75,1-3.16.82-5.05.72-1.89-1.9,9.51-12.92,11.18-13.07.73-.07,1.32.45,1.93.74Z"/>
  <path class="cls-1" d="M218.86,223.22c-2.15-2.15,4.36-8.74,6.01-9.49,2.2-1.01,4.57,1.74,6.13,3.12-1.44,3.08-3.96,2.42-5.33,3.11-1.63.81-4.28,5.79-6.81,3.27Z"/>
  <path class="cls-1" d="M242.38,166.54c4.36,4.4-4.88,11.17-5.83,3.07-.45-3.84,3.82-5.1,5.83-3.07Z"/>
  <path class="cls-1" d="M217.91,217.99l-6.42-.13c-4.7-3.21,7.87-5.05,6.42.13Z"/>
  <polygon class="cls-1" points="216.37 219.56 216.37 221.85 208.66 221.85 209 219.5 209.94 218.87 216.37 219.56"/>
  <path class="cls-1" d="M217.91,225.7l-6.42-.13c-4.7-3.21,7.87-5.05,6.42.13Z"/>
  <path d="M158.37,8.53l9.04-.19,130.17,40.95c2.82,1.92,3.36,11.14,3.6,14.9,5.61,84.97-8.36,171.33-81.95,223.35-10.42,7.37-45.92,30-57.21,29.96-7.51-.03-28.25-11.26-35.59-15.35C38.69,253.23,17.94,155.87,23.63,61.87c.17-2.73.7-9.93,2.38-11.49,2.64-2.44,18.24-5.7,22.91-7.16,36.54-11.37,72.85-23.52,109.45-34.69ZM162.22,16.98L34.44,57.27c-.73,3.99-1.37,8.84-1.56,13.08-4.1,90.79,17.02,182.51,103.58,227.17,4.62,2.39,22.18,10.73,26.35,10.7,1.92-.02,8.43-3.04,10.67-4,30.26-13.04,63.06-37.59,81.6-64.85,37.09-54.54,41.26-116.97,36.07-181.32l-.76-1.55-124.09-39.33c-1.38-.54-2.66-.38-4.08-.18Z"/>
  <path class="cls-19" d="M287.21,63.13c2.31,38.32.96,78.76-10.17,115.72-1.09,3.62-2.64,9.58-4.24,12.74-.27.53-.07,1.49-1.31.96-1.4-.61-6.52-5.53-7.66-6.99-2.51-3.22-5.23-11.34-6.99-13.05-1-.97-2.25-.76-3.48-.76-.06-1.38,2.05-.87,2.9-1.71.59-.6,1.06-2.42.96-3.26-3.28-6.88-10.22-1.69-5.41,4.21-4.53-1.31-6.8,4.47-10.06,5.78-1.3.52-3.09-1.06-4.21,1.15-2.97,5.85,11.35.66,12.38,2.29,1.74,3.3-4.33,9.56-2.63,12.27,4.14,1.26,12.38,2.37,13.39-2.98l9.63,8.84c-16.6,44.59-54.59,85.87-100.55,100.64l-7.81,2.26s-23.99-8.64-41.91-20.31c-13.48-8.77-21.67-18.04-28.2-25.43-31.6-35.77-44.41-87.41-47.66-101.6-8.22-37.13-6.69-69.43-3.57-92l122.2-38.16,124.41,39.4ZM156.24,44.56h-19.27c-.26,1.36.7,1.9,1.53,2.71,1.83,1.77,12.72,9.44,12.85,10.76l-5.13,18.13,15.8-9.76,15.79,10.54-3.73-18.73c.48-1.62,11.31-8.4,13.55-10.34.55-.47,1.45.03.98-1.76l-18.52-1.15-6.16-18.13c-1.87-.55-2.06,1.73-2.65,3.1-1.96,4.53-3.44,9.92-5.04,14.63ZM113.46,54.58h-12.72l9.86,8.95-3.69,12.63,11.89-6.19,10.46,6.96-2.21-13.35,9.92-8.22-13.14-1.13-3.83-11.98c-1.78-.37-1.23.21-1.73.99-1.23,1.93-3.48,10.91-4.82,11.35ZM207.88,42.25c-1.77-.37-1.23.19-1.73.98-1.29,2.07-3.48,10.27-4.39,10.96-3.67.58-7.17.14-10.83-.02-1.07-.05-1.33-.7-2.29.79l9.5,8.3-3.35,12.9,11.89-6.18,10.46,6.95-2.21-13.35,9.92-8.22-13.14-1.13-3.83-11.98ZM160.71,84.1c-48.55,2.75-81.34,51.57-63.19,97.42,21.09,53.26,96.2,60.39,127.64,12.51,32.36-49.27-6.45-113.21-64.46-109.93ZM62.86,113.28c-.88-.56-4.01-.18-4.97.58-1.72,1.36-.67,4.66-1.79,6.48-.55.89-2.12.86-2.8,2.41-1.83,4.21,1.09,3.16,1.78,3.65.69.49.46,2.18,1.14,2.76.91.78,4.22.42,4.5,1.42-.2,4.4.46,8.71-.86,12.98-.82,2.64-5.06,6.78-4.58,8.48,1.33,4.71,6.83-2.6,7.85-4.43.52-.92,1.34-6.65,2.92-5.16,1.33,1.25.5,8.58.86,10.71,8.03,2.29,3.41-10.05,3.02-14.19-.28-2.88.18-5.96-.01-8.86,4,.62,7.67-1.18,9.25-4.99-2.14-2.71-4.75.93-7.66,1.57-2.07.46-4.11.42-6.21.33-.09-1.34,1.64-.56,2.71-1.52,5-4.49-8.85-11.44-5.02.75-2.69.62-6.39-.83-5.32-4.11.58-1.77,5.76-1.94,6-6.28.03-.51-.52-2.42-.8-2.59ZM259.54,127.05c2.27.38,5.05-1.06,5.41-3.52,1.16-7.88-13.63-4.66-6.19,3.51-4.24-1.29-8.67-.91-12.78.73-1.5,1.95,3.18,6.81,3.22,8.91.04,1.98-2.2,5-.47,8.09-2.9-.92-10.15.66-5.84,3.92,1.07.81,10.78,2.06,11.67.75.71-1.04-.4-3.23,1.1-3.12,2.43,3.64-5.37,11.96-.35,13.1.57.13,2.31.18,2.61-.07.31-4.32,4.02-8.05,3.01-12.48-.47-2.06-3.18-3.76-2.17-6.72l5.4.77c-3.39,9.74,10.05,7.27,6.57.75-.77-1.45-2.71-1.14-3.28-1.74-.45-.48-.23-1.79-.98-2.46-1.38-1.24-4.83-.49-6.16-2.33,1.72-1.64,3.28-4.08,1.6-6.24-.7-.9-2.49-.61-2.38-1.85ZM81.47,167.88c4.12-10.52-10.81-7.28-3.85.77-2.7-.54-8.42,4.81-8.95,6.91-.56,2.21,5.52,3.9,5.69,5.02l-5.23,18.91c2.38.28,4.03,1.2,5.01-1.55,3.35,5.47,10.36.41,5.78-4.6,11.58-5.51,4.5-6.06,3.26-12.13-.58-2.85.44-5.26-.18-7.91,4.72.1,2.2,5.96,3.42,7.75l3.51.72-.92-9.87-7.56-4.01ZM242.38,166.54c-2.01-2.03-6.28-.77-5.83,3.07.95,8.1,10.19,1.33,5.83-3.07ZM222.54,230.33c-.61-.29-1.2-.81-1.93-.74-1.67.15-13.06,11.17-11.18,13.07,1.9.1,3.3.27,5.05-.72.54-.31,8.21-8,8.46-8.55.55-1.23-.36-2.1-.41-3.06.87.42,3.67,2.87,3.8,3.58l-5.26,6.96c2.95,6.37,9.07-3.89,12.06-6.28.2-2.42-7.12-5.26-3.28-8.1.03,3.56,11.64,2.65,12.38,1.6l-.4-3.56-6.98-.34-.77-5.39c5.81,1.36,5.89-7.26,1.46-6.56-5.62.88-2.61,4.56-3.33,5.78-.78,1.33-7.53,5.83-9.29,8.54-1.35,2.09-.48,2.06-.4,3.79ZM218.86,223.22c2.53,2.53,5.18-2.45,6.81-3.27,1.37-.69,3.89-.03,5.33-3.11-1.56-1.37-3.93-4.13-6.13-3.12-1.65.75-8.16,7.34-6.01,9.49ZM217.91,217.99c1.46-5.18-11.12-3.34-6.42-.13l6.42.13ZM108.46,222.62c.36-5.05-6.36-6.2-6.83-1.02-.15,1.68,2.62,2.2,2.2,4.1-2.49.26-3.18-2.34-5.6-.8-.71.45-4.59,5.69-4.41,6.57,6.22,3.9,10.14-5.63,15.4,3.1-5.02,2.25-2.55,7.41-3.07,11.95h3.86c.6-.59-2.26-10.16,5.03-10.01,2.36.05,7.44,7.94,9.6,8.86,1.91.81,3.26-1.6,1.92-3.46l-13.42-15.84c1.25-2.24,9.34-3.86,8.43-6.91-1.25-4.15-12.08,4.44-13.09,3.46ZM216.37,219.56l-6.43-.68-.94.62-.34,2.35h7.71s0-2.29,0-2.29ZM217.91,225.7c1.46-5.18-11.12-3.34-6.42-.13l6.42.13ZM151.62,271.57c.89-3.51-.66-10.32,0-14.26h.77v14.65l5.4.44,4.61-8.15c.07,3.11.15,10.04,4.24,10.09,4.27.06,1.04-5.23,1.11-8.95.05-3.21,1.83-6.58,1.58-9.17-.25-2.56-2.73-4.18-3.07-6.61,5.69-2.25,9.13-8.69,14.47-11.73.58-11.34-8.59,3.23-11.98,4.58-1.07.43-8.96,2.15-9.44,1.73,2.67-10.45-11.16-4.32-6.57.79,1.08,1.21,3.14.5,3.44.8.16.16.04,3,.62,4.39.68,1.62,5.57,5.94,5.45,7.52l-5.25,4.23c1.66-5.26-1.57-7.93-6.58-5.41-2.1,2.06-1.23,13.06-.36,16.2.26.2,1.46-.88,1.53-1.15Z"/>
  <circle class="cls-18" cx="164.68" cy="155.02" r="63.29" transform="translate(-61.38 161.85) rotate(-45)"/>
  <path class="cls-6" d="M174.04,165.11l-.04-.67c.38-.05.81-.08,1.21-.08s.82.03,1.22.08l.67.12c1.7.36,3.26,1.21,4.52,2.47,1.71,1.72,2.66,4,2.66,6.43s-.94,4.71-2.66,6.43c-1.71,1.72-3.99,2.66-6.42,2.66s-4.7-.95-6.42-2.66c-1.71-1.72-2.66-4-2.66-6.43,0-4.18,2.82-7.7,6.66-8.77l.03.63-.06.65-.04.02c-1.14.38-2.19,1.03-3.07,1.9-1.48,1.49-2.3,3.46-2.3,5.57s.82,4.08,2.3,5.57c1.48,1.49,3.46,2.31,5.56,2.31,4.33,0,7.86-3.53,7.86-7.87,0-2.1-.82-4.08-2.3-5.57-1.48-1.49-3.46-2.31-5.56-2.31-.4,0-.8.03-1.18.09v-.55Z"/>
  <path class="cls-3" d="M164.96,156.02c-5,0-9.08,4.08-9.08,9.09,0,2.43.94,4.71,2.66,6.43,1.3,1.31,2.94,2.17,4.71,2.5l.61.09.61.05h.49c2.42.01,4.7-.93,6.42-2.65,1.71-1.72,2.66-4,2.66-6.43s-.94-4.71-2.66-6.43c-1.71-1.72-3.99-2.66-6.42-2.66ZM172.82,165.11c0,4.34-3.53,7.87-7.86,7.87l-.51-.02-.71-.08-.48-.08c-1.43-.33-2.79-1.07-3.85-2.13-1.48-1.49-2.3-3.46-2.3-5.57s.82-4.08,2.3-5.57c1.48-1.49,3.46-2.31,5.56-2.31s4.07.82,5.56,2.31c1.48,1.49,2.3,3.46,2.3,5.57Z"/>
  <path class="cls-5" d="M163.82,174.13l-.57-.08c-.31,4.06-3.71,7.27-7.84,7.27-2.1,0-4.07-.82-5.56-2.31-1.48-1.49-2.3-3.46-2.3-5.57s.82-4.08,2.3-5.57c1.48-1.49,3.46-2.31,5.56-2.31s4.07.82,5.56,2.31c1.33,1.33,2.12,3.05,2.27,4.9,0,0,.19.08.54.12.34.04.69.06.69.06-.12-2.25-1.05-4.34-2.65-5.94-1.71-1.72-3.99-2.66-6.42-2.66-5,0-9.08,4.08-9.08,9.09,0,2.43.94,4.71,2.66,6.43,1.71,1.72,3.99,2.66,6.42,2.66s4.7-.95,6.42-2.66c1.54-1.54,2.46-3.54,2.63-5.69l-.64-.05Z"/>
  <path class="cls-7" d="M146.34,173.45l.04-.59c-.46.08-.93.13-1.42.13-2.1,0-4.07-.82-5.56-2.31s-2.3-3.46-2.3-5.57.82-4.08,2.3-5.57c1.48-1.49,3.46-2.31,5.56-2.31s4.07.82,5.56,2.31c1.48,1.49,2.3,3.46,2.3,5.57,0,3.42-2.19,6.34-5.24,7.42l-.03.71.03.58c1.42-.43,2.72-1.2,3.8-2.28,1.71-1.72,2.66-4,2.66-6.43s-.94-4.71-2.66-6.43c-1.71-1.72-3.99-2.66-6.42-2.66-5,0-9.08,4.08-9.08,9.09,0,2.43.94,4.71,2.66,6.43,1.71,1.72,3.99,2.66,6.42,2.66.48,0,.95-.04,1.42-.11l-.04-.65Z"/>
  <path class="cls-4" d="M176.56,165.71l-.68-.08c.11,2.25,1.04,4.31,2.64,5.92,1.71,1.72,3.99,2.66,6.42,2.66s4.7-.95,6.42-2.66c1.71-1.72,2.66-4,2.66-6.43s-.94-4.71-2.66-6.43c-1.71-1.72-3.99-2.66-6.42-2.66-4.76,0-8.68,3.69-9.05,8.37l.66.08.54.09c.13-1.89.93-3.66,2.28-5.01,1.48-1.49,3.46-2.31,5.56-2.31s4.07.82,5.56,2.31c1.48,1.49,2.3,3.46,2.3,5.57,0,4.34-3.53,7.87-7.86,7.87-.66,0-1.31-.08-1.93-.24-1.36-.34-2.61-1.05-3.62-2.07-1.31-1.32-2.11-3.02-2.27-4.85l-.56-.12Z"/>
  <path class="cls-9" d="M175.44,147.88h-.09c3.05-2.76,5.22-7.58-.01-15.62,0,0-.97,1.29-1.17,3.63-3.32-2.18,6.56-13.57-9.55-19.58,5.55,8.26-8.8,6.91-8.32,20.04-.86-.51-1.67-3.18-1.24-5.35-1.27,1.1-7.31,9.72-.35,16.88h-.23c-.99,0-1.79.8-1.79,1.79s.8,1.79,1.79,1.79h.07c.05.35.12.7.21,1.04.59,2.29,1.93,4.27,3.74,5.68l.24,1.56,4.24,27.38h4l4.24-27.38.24-1.56c1.81-1.41,3.15-3.4,3.74-5.68.09-.34.15-.68.21-1.04h.06c.99,0,1.79-.8,1.79-1.79s-.8-1.79-1.79-1.79Z"/>
  <path class="cls-2" d="M159.37,140.45s.52.7.63,1.95c1.79-1.17-3.53-7.3,5.14-10.53-2.99,4.44,4.74,3.72,4.48,10.78.55-.39.77-1.23.67-2.88.62.54,3.4,4.48.98,8.1h4.08c3.05-2.76,5.22-7.58-.01-15.62,0,0-.97,1.29-1.17,3.63-3.32-2.18,6.56-13.57-9.55-19.58,5.55,8.26-8.8,6.91-8.32,20.04-.86-.51-1.67-3.18-1.24-5.35-1.27,1.1-7.31,9.72-.35,16.88h3.79c-1.07-1.56-1.4-3.92.87-7.42Z"/>
  <path class="cls-17" d="M170.29,139.77c.1,1.65-.12,2.49-.67,2.88.26-7.06-7.46-6.34-4.48-10.78-8.67,3.23-3.35,9.36-5.14,10.53-.11-1.26-.63-1.95-.63-1.95-2.27,3.5-1.95,5.86-.87,7.42h12.77c2.42-3.62-.36-7.56-.98-8.1Z"/>
  <path class="cls-10" d="M175.44,147.88h-20.97c-.99,0-1.79.8-1.79,1.79s.8,1.79,1.79,1.79h20.97c.99,0,1.79-.8,1.79-1.79s-.8-1.79-1.79-1.79ZM164.96,165.96l-1.48-4.3c-.76-.11-1.49-.29-2.19-.55l2.45,26h2.43l2.45-26c-.7.26-1.43.45-2.19.55l-1.48,4.3ZM170.22,156.3s.21-2.52.19-3.82h-1.73c-.13,1.08-.45,3.5-1.01,4.79l-.1.21-.06-.21c-.16-.84-.14-3.51-.19-4.79h-1.63c-.06,1.07-.17,3.29-.4,4.79-.08.53-.18.97-.29,1.24-.12-.27-.21-.71-.29-1.24-.23-1.5-.33-3.72-.4-4.79h-1.63c-.05,1.28-.03,3.96-.19,4.79l-.06.21-.1-.21c-.56-1.29-.88-3.71-1.01-4.79h-1.73c-.03,1.3.19,3.82.19,3.82-.76-1.17-1.26-2.94-1.48-3.82h-1.73c.39,1.84,1.18,3.49,2.24,4.79,1.57,1.92,3.74,3.11,6.13,3.11s4.57-1.19,6.13-3.11c1.07-1.31,1.85-2.95,2.24-4.79h-1.63c-.22.88-.72,2.65-1.48,3.82Z"/>
  <path class="cls-9" d="M154.54,151.45c.05.35.12.7.21,1.04.59,2.29,1.93,4.27,3.74,5.68l.24,1.56,4.24,27.38h.78l-2.45-26c.7.26,1.43.45,2.19.55l1.48,4.3,1.48-4.3c.76-.11,1.49-.29,2.19-.55l-2.45,26h.78l4.24-27.38.24-1.56c1.81-1.41,3.15-3.4,3.74-5.68.09-.34.15-.68.21-1.04h-20.84ZM171.09,157.28c-1.57,1.92-3.74,3.11-6.13,3.11s-4.57-1.19-6.13-3.11c-1.07-1.31-1.85-2.95-2.24-4.79h1.73c.22.88.72,2.65,1.48,3.82,0,0-.21-2.52-.19-3.82h1.73c.13,1.08.45,3.5,1.01,4.79l.1.21.06-.21c.16-.84.14-3.51.19-4.79h1.63c.06,1.07.17,3.29.4,4.79.08.53.18.97.29,1.24.12-.27.21-.71.29-1.24.23-1.5.33-3.72.4-4.79h1.63c.05,1.28.03,3.96.19,4.79l.06.21.1-.21c.56-1.29.88-3.71,1.01-4.79h1.73c.03,1.3-.19,3.82-.19,3.82.76-1.17,1.26-2.94,1.48-3.82h1.63c-.39,1.84-1.18,3.49-2.24,4.79Z"/>
  <text class="cls-11" transform="translate(118.53 148.53) rotate(-78.34)"><tspan x="0" y="0">S</tspan></text>
  <text class="cls-15" transform="translate(120.25 140.68) rotate(-70.68)"><tspan x="0" y="0">I</tspan></text>
  <text class="cls-11" transform="translate(121.66 136.5) rotate(-64.18)"><tspan x="0" y="0">L</tspan></text>
  <text class="cls-14" transform="translate(124.28 131.14) rotate(-57.77)"><tspan x="0" y="0">I</tspan></text>
  <text class="cls-14" transform="translate(126.41 127.41) rotate(-49.62)"><tspan x="0" y="0">C</tspan></text>
  <text class="cls-11" transform="translate(132.01 120.61) rotate(-37.72)"><tspan x="0" y="0">O</tspan></text>
  <text class="cls-16" transform="translate(140.36 114.15) rotate(-25.3)"><tspan x="0" y="0">N</tspan></text>
  <text class="cls-11" transform="translate(152.46 109) rotate(-10.06)"><tspan x="0" y="0">S</tspan></text>
  <text class="cls-11" transform="translate(160.25 107.57) rotate(.07)"><tspan x="0" y="0">P</tspan></text>
  <text class="cls-11" transform="translate(168.69 107.42) rotate(11.66)"><tspan x="0" y="0">O</tspan></text>
  <text class="cls-14" transform="translate(179.06 109.6) rotate(23.87)"><tspan x="0" y="0">R</tspan></text>
  <text class="cls-11" transform="translate(187.37 113.34) rotate(33.71)"><tspan x="0" y="0">T</tspan></text>
  <text class="cls-11" transform="translate(193.07 117.06) rotate(42.87)"><tspan x="0" y="0">S</tspan></text>
  <text class="cls-11" transform="translate(201.19 125.05) rotate(57.4)"><tspan x="0" y="0">C</tspan></text>
  <text class="cls-14" transform="translate(205.89 132.57) rotate(66.52)"><tspan x="0" y="0">L</tspan></text>
  <text class="cls-11" transform="translate(208.4 137.91) rotate(75.95)"><tspan x="0" y="0">U</tspan></text>
  <text class="cls-14" transform="translate(210.64 146.9) rotate(86.82)"><tspan x="0" y="0">B</tspan></text>
  <text class="cls-12" transform="translate(117.54 184.5) rotate(52.96)"><tspan x="0" y="0">S</tspan></text>
  <text class="cls-13" transform="translate(123.17 191.69) rotate(45.73)"><tspan x="0" y="0">I</tspan></text>
  <text class="cls-13" transform="translate(126.83 195.46) rotate(39.74)"><tspan x="0" y="0">L</tspan></text>
  <text class="cls-13" transform="translate(132.17 199.81) rotate(33.77)"><tspan x="0" y="0">I</tspan></text>
  <text class="cls-12" transform="translate(136.66 202.92) rotate(26.11)"><tspan x="0" y="0">C</tspan></text>
  <text class="cls-13" transform="translate(146.09 207.51) rotate(14.76)"><tspan x="0" y="0">O</tspan></text>
  <text class="cls-13" transform="translate(158.05 210.47) rotate(2.73)"><tspan x="0" y="0">N</tspan></text>
  <text class="cls-13" transform="translate(173.61 210.6) rotate(-14.35)"><tspan x="0" y="0">W</tspan></text>
  <text class="cls-12" transform="translate(187.12 206.76) rotate(-26.19)"><tspan x="0" y="0">E</tspan></text>
  <text class="cls-13" transform="translate(195.18 202.72) rotate(-35.41)"><tspan x="0" y="0">S</tspan></text>
  <text class="cls-12" transform="translate(202.68 197.24) rotate(-44.02)"><tspan x="0" y="0">T</tspan></text>
</svg>