<?xml version="1.0" encoding="UTF-8"?>
<svg id="SEAMS" xmlns="http://www.w3.org/2000/svg" xmlns:xlink="http://www.w3.org/1999/xlink" viewBox="0 0 102.66 113.17">
  <defs>
    <style>
      .cls-1 {
        fill: #fff;
      }

      .cls-2 {
        fill: none;
      }

      .cls-3 {
        fill: #19348e;
      }
    </style>
    <clipPath id="clippath">
      <rect class="cls-2" x="454.98" y="79.7" width="773.4" height="1145.51"/>
    </clipPath>
  </defs>
  <path class="cls-1" d="M51.82,7.23c.48-.07.92-.12,1.39.06l42.37,13.43.26.53c1.77,21.97.35,43.29-12.32,61.92-6.33,9.31-17.53,17.69-27.87,22.15-.76.33-2.99,1.36-3.64,1.37-1.42.01-7.42-2.84-9-3.65C13.47,87.78,6.25,56.46,7.65,25.45c.07-1.45.29-3.11.53-4.47L51.82,7.23ZM94.5,22.99l-42.48-13.46L10.29,22.56c-2.02,10.25-1.87,21.5.08,31.78,3.57,18.75,14,34.75,30.38,44.64,1.6.97,9.66,5.36,10.98,5.31.45-.02,2.09-.59,2.67-.77,15.69-5.05,28.67-19.14,34.34-34.37l-3.29-3.02c-.34,1.83-3.16,1.45-4.57,1.02-.58-.92,1.49-3.06.9-4.19-.35-.56-5.24,1.22-4.23-.78.38-.76,1-.21,1.44-.39,1.11-.45,1.89-2.42,3.44-1.98-1.64-2.01.73-3.79,1.85-1.44.03.29-.13.91-.33,1.11-.29.29-1.01.11-.99.59.42,0,.85-.07,1.19.26.6.59,1.53,3.36,2.39,4.46.39.5,2.14,2.18,2.62,2.39.42.18.35-.15.45-.33.55-1.08,1.08-3.11,1.45-4.35,3.8-12.62,4.26-26.43,3.47-39.52ZM85.05,65.87c.19-.23-.94-2.13-1.59-1.46l-.51,1.2,2.1.27Z"/>
  <path class="cls-1" d="M51.31,30.15c19.81-1.12,33.06,20.72,22.01,37.54-10.74,16.35-36.39,13.91-43.59-4.27-6.2-15.66,5-32.33,21.58-33.27ZM51.62,36.39l-2.37.26c.11.89.84,1.69.37,2.61l.3.55.92-.27-.27-1.05,1.29-.42-.24-1.69ZM54.74,39.51l.19-2.88-2.25-.25v3.16s2.07-.04,2.07-.04ZM57.94,40.33c-.71-1.07.47-1.78.42-2.91l-2.26-.78c.09,1.07-.15,2.15-.79,3.03l1.05.39.53-1.06.13,1.06.93.26ZM48.46,38.23l-.41-1.03-1.96.51c.06,1.49.76,1.53,2.11,1.58.26,1.11-1.17.09-1.32.26v1.05c1.04.26,2.99-.75,1.77-1.78-.49-.42-1.98.07-1.77-.85,1.04-.55.53.43,1.58.26ZM62.15,39.03l-2.29-1.03-.87,1.02,1.31-.13c-.49.95-2.36,2.5-.26,2.5-.02-.38.69-2.91,1.19-2.11l.26.79.66-1.05ZM44.25,38.49c-2.33.18.13,1.4-.26,1.84-.43-.23-1.67-1.39-2.1-.79-.38.54,1.7,1.98,1.32,2.89l1.05-.4-1.06-1.44c.38-.34,1.9,1.67,2.11.65.16-.8-1.4-1.74-1.05-2.76ZM62.15,41.39l-1.05.66,1.67,1.17.88-.9-.71-1.59.52-.27.66,1.18.65-.65c-2.04-2.17-2.76-1.18-2.1,1.45l-.53-1.05ZM40.64,43.94c1.07.89,2.53-.38,1.78-1.64-.16-.27-1.41-1.44-1.73-1.44l-1.43,1.23c-.02.13,1.22,1.72,1.37,1.86ZM67.68,44.55l-1.22-1.81c-1.77.98-3.17,1.5-1.27,3.39,1.09-.28,1.16-1.35-.14-.79l-.25-.67,1.44-1.18.64.4-.26.91,1.05-.26ZM38.99,44.28c-.09-1.81-1.97.23-1.72.8.45.52,2.09,2.01,2.74,1.54l.81-1.42-1.05-.39c.5,1.92-1.18.81-1.84-.13l1.05-.4ZM68.73,46.65l-.4-1.31c-.66.88-1.43,1.01-2.38,1.31-.28.09-.48-.19-.38.39l.92,1.73c1.22-.18,1.62-1.38.12-.8l.04-.75,2.06-.57ZM39.25,47.18s-.66-.05-.97-.21c-.41-.2-1.73-1.26-1.92-1.11l-.14,1.06c.7.22,1.43.38,2.06.78.22.14.18.49.2.51.49.3,1.03-.73.77-1.03ZM67.42,49.82c1.08-.41,3.21.12,2.37-1.58l-2.87,1.07c-.01,3.38,1.57,1.38,3.67,1.55l-.27-1.05-2.46.81-.43-.81ZM38.73,48.76c-.61-.11-1.11-.54-1.58.13l.65.92-2.49-1.06-.27,1.31c1.08-.14,1.85.32,2.76.79l.93-2.1ZM37.94,51.39c-1.34.56-3.57-1.49-3.42.52,1.2-.16,2.07.12,3.16.53l.27-1.05ZM70.84,51.92l-3.42.26.26,2.37,3.16-.26v-2.37ZM55.04,52.18h-1.32s-1.2,10.28-1.2,10.28l1.46.25-.51-1.19c1.01-.74,1.98-1.35,2.15-2.7l.6-.23.92.42-.69-1.06c1.68-3.62,6.33-.12,3.69,2.36-1.25,1.17-2.83.29-3.79-.77.26,1.58,2.22,1.09,1.32,2.9.59-.1.43-.96.78-1.19.44-.3,1.27,0,1.99-.64,3.27-2.95-3.17-7.34-4.35-2.29l-.52.17c.3-.99-1.17-1.8-1.26-2.27-.14-.71.88-3.92.73-4.05ZM35.3,52.71h-1.05c-.28,2.87,1,3.16,2.5.79,1.13.99-.44.61-.39,1.57l1.02-.03.27-1.63c-1.52-1.8-1.51.64-2.87.87l.52-1.58ZM65.05,63.77l1.05-.13-.92-.92-1.7,2.24,1.04.65.13-1.05,1.97,1.84.53-1.31c-.9.02-1.69-.54-2.11-1.32ZM41.36,65.08l-1.45-1.83c-1.23.81-.79,1.39-.66,2.62h-.79s0-1.31,0-1.31l-.81.42c-.05.47.7,1.69,1.2,1.7,1.28-.31.89-1.65.93-2.65.68.27.77.67.52,1.31l1.05-.26ZM42.41,66.13l-.78-.78c-.39.99-1.11,1.91-2.11,2.23l1.05.66c.14-.93.9-1.89,1.84-2.11ZM63.47,65.34l-1.53.83c-.23.38.03,1.21.46,1.4l1.86-.12c.28,1.02-1.34.44-1.31.92.07,1.13,2.07,0,2.11-.79l-.7-.86-1.94.2c-.14-1.07.95-.44,1.19-.79l-.14-.79ZM43.73,67.18l-.26-.66c-1.01-.5-.67.19-1.04.8s-.82,1.1-1.33,1.57l1.83,1.18.26-1.32c-1.78,1.46-.79-1.82.53-1.58ZM61.36,66.92l-3.16,1.32c-.26.65.46.44.53.69.12.46-.07,1.16,0,1.67-.81-.38-1.11-1.25-1.05-2.11l-.79.28.52,2.36c-.48.61-1.26-1.84-1.05-2.1l-1.05.27,1.61,2.87,1.02-.25-.26-1.31.79,1.05.74-.31.05-3.11c.39-.45,1.81,1.87,1.58,2.37l1.81-.82-.09-.77-.66-.26-.4,1.05-1.18-1.71,1.19-.39-.13-.79ZM45.82,68.49l-.24-.65-.79-.13c.62,1.15-.94,1.8-1.05,2.89,1.5.78.73-1.97,2.09-2.12ZM48.47,69.03l-2.1-.53c-.28,2.01-1.92,3.51,1.31,3.42v-.79s-1.31.26-1.31.26c-.14-1.5.65-3.09,1.84-1.32l.27-1.05ZM51.1,69.55l-2.1-.26-.53,3.14c.6.03,1.84.62,2.24.02l.38-2.91ZM53.99,72.71l.15-3.16-.93-.26.26,1.84c-.92-.59-.62-1.9-2.1-1.58.85.96.55,2.03.26,3.15h1.05s-.26-1.84-.26-1.84c.86.49.39,1.69,1.57,1.84Z"/>
  <path class="cls-1" d="M49.78,16.65c.55-1.61,1.05-3.45,1.72-4.99.2-.47.27-1.25.91-1.06l2.1,6.19,6.32.39c.16.61-.15.44-.34.6-.77.66-4.46,2.98-4.63,3.53l1.27,6.39-5.39-3.6-5.39,3.33,1.75-6.19c-.05-.45-3.77-3.07-4.39-3.68-.28-.28-.61-.46-.52-.93h6.58Z"/>
  <path class="cls-1" d="M48.2,94.17c-.02.09-.43.46-.52.39-.3-1.07-.59-4.83.12-5.53,1.71-.86,2.81.05,2.25,1.85l1.79-1.44c.04-.54-1.63-2.02-1.86-2.57-.2-.48-.16-1.45-.21-1.5-.1-.1-.81.14-1.18-.27-1.57-1.75,3.16-3.84,2.24-.27.16.14,2.86-.44,3.22-.59,1.16-.46,4.29-5.44,4.09-1.56-1.82,1.04-3,3.24-4.94,4.01.12.83.96,1.38,1.05,2.26s-.52,2.04-.54,3.13c-.02,1.27,1.08,3.08-.38,3.06s-1.42-2.38-1.45-3.45l-1.57,2.78-1.85-.15v-5h-.26c-.22,1.35.3,3.67,0,4.87Z"/>
  <path class="cls-1" d="M67.41,15.86l1.31,4.09,4.49.39-3.39,2.81.76,4.56-3.57-2.38-4.06,2.11,1.14-4.4-3.24-2.83c.33-.51.42-.29.78-.27,1.25.05,2.45.21,3.7,0,.31-.24,1.06-3.04,1.5-3.74.17-.27-.01-.46.59-.34Z"/>
  <path class="cls-1" d="M85.05,44.81c-.04.42.57.32.81.63.58.74.04,1.57-.55,2.13.45.63,1.63.37,2.1.8.25.23.18.68.33.84.19.21.85.1,1.12.59,1.19,2.23-3.4,3.07-2.24-.25l-1.84-.26c-.35,1.01.58,1.59.74,2.29.35,1.51-.92,2.79-1.03,4.26-.1.09-.7.07-.89.02-1.71-.39.95-3.23.12-4.47-.51-.04-.13.71-.38,1.07-.3.45-3.62.02-3.99-.26-1.47-1.11,1-1.65,1.99-1.34-.59-1.06.17-2.09.16-2.76-.02-.71-1.61-2.37-1.1-3.04,1.4-.56,2.91-.69,4.36-.25-2.54-2.79,2.51-3.89,2.11-1.2-.12.84-1.07,1.33-1.85,1.2Z"/>
  <path class="cls-1" d="M35.17,20.07c.46-.15,1.23-3.22,1.64-3.88.17-.27-.02-.46.59-.34l1.31,4.09,4.49.39-3.39,2.81.75,4.56-3.57-2.38-4.06,2.11,1.26-4.31-3.37-3.06h4.34Z"/>
  <path class="cls-1" d="M24.25,58.76l2.58,1.37.32,3.37-1.2-.25c-.42-.61.44-2.61-1.17-2.65.21.91-.14,1.73.06,2.7.42,2.07,2.84,2.26-1.11,4.14,1.56,1.71-.83,3.44-1.97,1.57-.34.94-.9.62-1.71.53l1.78-6.46c-.06-.38-2.13-.96-1.94-1.71.18-.71,2.13-2.54,3.05-2.36-2.38-2.75,2.72-3.86,1.31-.26ZM22.93,67.18c-.8-1.44,2.34-1.34.39-2.89-.56-.12-.35.23-.46.58-.23.73-.27,1.54-.72,2.19l.79.13Z"/>
  <path class="cls-1" d="M17.89,40.11c.09.06.28.71.27.89-.08,1.48-1.85,1.54-2.05,2.14-.37,1.12.9,1.61,1.82,1.4-1.31-4.16,3.42-1.79,1.72-.26-.37.33-.96.06-.92.52.72.03,1.41.04,2.12-.11.99-.22,1.89-1.46,2.62-.54-.54,1.3-1.79,1.92-3.16,1.71.06.99-.09,2.04,0,3.03.14,1.41,1.71,5.62-1.03,4.84-.12-.73.16-3.23-.29-3.66-.54-.51-.82,1.45-1,1.76-.35.62-2.23,3.12-2.68,1.51-.16-.58,1.28-1.99,1.56-2.9.45-1.46.22-2.93.29-4.43-.09-.34-1.22-.22-1.54-.49-.23-.2-.16-.78-.39-.94s-1.23.19-.61-1.25c.23-.53.77-.52.96-.82.38-.62.03-1.75.61-2.21.33-.26,1.4-.39,1.7-.2Z"/>
  <path class="cls-1" d="M33.46,77.45c.34.33,4.04-2.6,4.47-1.18.31,1.04-2.45,1.59-2.88,2.36l4.58,5.41c.45.64,0,1.46-.66,1.18-.74-.31-2.47-3.01-3.28-3.02-2.49-.05-1.51,3.22-1.72,3.42h-1.32c.18-1.55-.66-3.31,1.05-4.08-1.8-2.98-3.14.27-5.26-1.06-.06-.3,1.26-2.09,1.51-2.24.83-.52,1.06.36,1.91.27.15-.65-.8-.83-.75-1.4.16-1.77,2.46-1.38,2.33.35Z"/>
  <path class="cls-1" d="M72.42,80.08c-.03-.59-.33-.58.14-1.3.6-.93,2.9-2.46,3.17-2.92.25-.42-.78-1.68,1.14-1.97,1.51-.24,1.49,2.71-.5,2.24l.26,1.84,2.38.12.14,1.22c-.25.36-4.22.67-4.23-.54-1.31.97,1.19,1.94,1.12,2.77-1.02.82-3.11,4.32-4.12,2.15l1.79-2.38c-.04-.24-1-1.08-1.3-1.22.02.32.33.62.14,1.04-.08.19-2.7,2.82-2.89,2.92-.6.34-1.08.28-1.73.25-.64-.65,3.25-4.41,3.82-4.46.25-.02.45.15.66.25Z"/>
  <path class="cls-1" d="M71.16,77.65c-.73-.73,1.49-2.98,2.05-3.24.75-.34,1.56.59,2.09,1.06-.49,1.05-1.35.83-1.82,1.06-.56.28-1.46,1.98-2.32,1.12Z"/>
  <path class="cls-1" d="M79.2,58.3c1.49,1.5-1.67,3.81-1.99,1.05-.15-1.31,1.3-1.74,1.99-1.05Z"/>
  <path class="cls-1" d="M70.84,75.87l-2.19-.04c-1.61-1.1,2.69-1.72,2.19.04Z"/>
  <polygon class="cls-1" points="70.31 76.4 70.31 77.19 67.68 77.19 67.8 76.38 68.12 76.17 70.31 76.4"/>
  <path class="cls-1" d="M70.84,78.5l-2.19-.04c-1.61-1.1,2.69-1.72,2.19.04Z"/>
  <g>
    <path class="cls-3" d="M50.51,4.34l3.09-.07,44.45,13.98c.96.66,1.15,3.8,1.23,5.09,1.91,29.02-2.85,58.51-27.99,76.27-3.56,2.52-15.68,10.25-19.54,10.23-2.56-.01-9.65-3.84-12.15-5.24C9.64,87.9,2.55,54.66,4.5,22.56c.06-.93.24-3.39.81-3.92.9-.83,6.23-1.95,7.82-2.44,12.48-3.88,24.88-8.03,37.38-11.85ZM51.82,7.23L8.19,20.99c-.25,1.36-.47,3.02-.53,4.47-1.4,31,5.81,62.32,35.37,77.57,1.58.81,7.58,3.67,9,3.65.66,0,2.88-1.04,3.64-1.37,10.33-4.45,21.53-12.84,27.87-22.15,12.67-18.62,14.09-39.94,12.32-61.92l-.26-.53L53.21,7.29c-.47-.18-.91-.13-1.39-.06Z"/>
    <path class="cls-3" d="M94.5,22.99c.79,13.09.33,26.89-3.47,39.52-.37,1.24-.9,3.27-1.45,4.35-.09.18-.02.51-.45.33-.48-.21-2.23-1.89-2.62-2.39-.86-1.1-1.79-3.87-2.39-4.46-.34-.33-.77-.26-1.19-.26-.02-.47.7-.3.99-.59.2-.2.36-.83.33-1.11-1.12-2.35-3.49-.58-1.85,1.44-1.55-.45-2.32,1.53-3.44,1.98-.44.18-1.06-.36-1.44.39-1.01,2,3.87.23,4.23.78.59,1.13-1.48,3.27-.9,4.19,1.41.43,4.23.81,4.57-1.02l3.29,3.02c-5.67,15.23-18.64,29.32-34.34,34.37-.58.19-2.22.76-2.67.77-1.32.05-9.38-4.34-10.98-5.31-16.37-9.89-26.81-25.89-30.38-44.64-1.96-10.28-2.1-21.53-.08-31.78l41.73-13.03,42.48,13.46ZM49.78,16.65h-6.58c-.09.46.24.65.52.93.62.6,4.34,3.22,4.39,3.68l-1.75,6.19,5.39-3.33,5.39,3.6-1.27-6.39c.17-.55,3.86-2.87,4.63-3.53.19-.16.5.01.34-.6l-6.32-.39-2.1-6.19c-.64-.19-.7.59-.91,1.06-.67,1.55-1.18,3.39-1.72,4.99ZM35.17,20.07h-4.34l3.37,3.06-1.26,4.31,4.06-2.11,3.57,2.38-.75-4.56,3.39-2.81-4.49-.39-1.31-4.09c-.61-.13-.42.07-.59.34-.42.66-1.19,3.73-1.64,3.88ZM67.41,15.86c-.6-.13-.42.06-.59.34-.44.71-1.19,3.51-1.5,3.74-1.25.2-2.45.05-3.7,0-.37-.02-.45-.24-.78.27l3.24,2.83-1.14,4.4,4.06-2.11,3.57,2.38-.76-4.56,3.39-2.81-4.49-.39-1.31-4.09ZM51.31,30.15c-16.58.94-27.78,17.61-21.58,33.27,7.2,18.19,32.85,20.62,43.59,4.27,11.05-16.82-2.2-38.66-22.01-37.54ZM17.89,40.11c-.3-.19-1.37-.06-1.7.2-.59.46-.23,1.59-.61,2.21-.19.3-.72.29-.96.82-.63,1.44.37,1.08.61,1.25s.16.74.39.94c.31.26,1.44.14,1.54.49-.07,1.5.16,2.97-.29,4.43-.28.9-1.73,2.32-1.56,2.9.45,1.61,2.33-.89,2.68-1.51.18-.31.46-2.27,1-1.76.45.43.17,2.93.29,3.66,2.74.78,1.17-3.43,1.03-4.84-.09-.98.06-2.03,0-3.03,1.37.21,2.62-.4,3.16-1.71-.73-.93-1.62.32-2.62.54-.71.16-1.4.14-2.12.11-.03-.46.56-.19.92-.52,1.71-1.53-3.02-3.91-1.72.26-.92.21-2.18-.28-1.82-1.4.2-.61,1.97-.66,2.05-2.14,0-.17-.18-.83-.27-.89ZM85.05,44.81c.78.13,1.73-.36,1.85-1.2.4-2.69-4.66-1.59-2.11,1.2-1.45-.44-2.96-.31-4.36.25-.51.67,1.08,2.33,1.1,3.04.02.68-.75,1.71-.16,2.76-.99-.31-3.47.23-1.99,1.34.36.28,3.68.7,3.99.26.24-.35-.14-1.1.38-1.07.83,1.24-1.83,4.08-.12,4.47.2.04.79.06.89-.02.11-1.47,1.37-2.75,1.03-4.26-.16-.7-1.09-1.28-.74-2.29l1.84.26c-1.16,3.33,3.43,2.48,2.24.25-.26-.5-.92-.39-1.12-.59-.15-.16-.08-.61-.33-.84-.47-.42-1.65-.17-2.1-.8.59-.56,1.12-1.39.55-2.13-.24-.31-.85-.21-.81-.63ZM24.25,58.76c1.41-3.59-3.69-2.49-1.31.26-.92-.19-2.87,1.64-3.05,2.36-.19.76,1.88,1.33,1.94,1.71l-1.78,6.46c.81.1,1.37.41,1.71-.53,1.14,1.87,3.54.14,1.97-1.57,3.96-1.88,1.54-2.07,1.11-4.14-.2-.97.15-1.8-.06-2.7,1.61.03.75,2.04,1.17,2.65l1.2.25-.32-3.37-2.58-1.37ZM79.2,58.3c-.69-.69-2.15-.26-1.99,1.05.33,2.77,3.48.45,1.99-1.05ZM72.42,80.08c-.21-.1-.41-.28-.66-.25-.57.05-4.46,3.81-3.82,4.46.65.03,1.13.09,1.73-.25.18-.1,2.8-2.73,2.89-2.92.19-.42-.12-.72-.14-1.04.3.14,1.25.98,1.3,1.22l-1.79,2.38c1.01,2.17,3.1-1.33,4.12-2.15.07-.83-2.43-1.8-1.12-2.77.01,1.21,3.97.9,4.23.54l-.14-1.22-2.38-.12-.26-1.84c1.98.46,2.01-2.48.5-2.24-1.92.3-.89,1.56-1.14,1.97-.27.45-2.57,1.99-3.17,2.92-.46.72-.16.7-.14,1.3ZM71.16,77.65c.86.86,1.77-.84,2.32-1.12.47-.23,1.33,0,1.82-1.06-.53-.47-1.34-1.41-2.09-1.06-.56.26-2.79,2.51-2.05,3.24ZM70.84,75.87c.5-1.77-3.8-1.14-2.19-.04l2.19.04ZM33.46,77.45c.12-1.73-2.17-2.12-2.33-.35-.05.57.9.75.75,1.4-.85.09-1.09-.8-1.91-.27-.24.15-1.57,1.94-1.51,2.24,2.13,1.33,3.46-1.92,5.26,1.06-1.71.77-.87,2.53-1.05,4.08h1.32c.21-.2-.77-3.47,1.72-3.42.81.02,2.54,2.71,3.28,3.02.65.28,1.11-.55.66-1.18l-4.58-5.41c.43-.77,3.19-1.32,2.88-2.36-.43-1.42-4.13,1.52-4.47,1.18ZM70.31,76.4l-2.19-.23-.32.21-.12.8h2.63s0-.78,0-.78ZM70.84,78.5c.5-1.77-3.8-1.14-2.19-.04l2.19.04ZM48.2,94.17c.3-1.2-.22-3.52,0-4.87h.26v5l1.85.15,1.57-2.78c.02,1.06.05,3.43,1.45,3.45s.36-1.79.38-3.06c.02-1.1.63-2.25.54-3.13s-.93-1.43-1.05-2.26c1.94-.77,3.12-2.97,4.94-4.01.2-3.87-2.93,1.1-4.09,1.56-.37.15-3.06.74-3.22.59.91-3.57-3.81-1.48-2.24.27.37.41,1.07.17,1.18.27.05.05.01,1.02.21,1.5.23.55,1.9,2.03,1.86,2.57l-1.79,1.44c.57-1.79-.54-2.71-2.25-1.85-.72.7-.42,4.46-.12,5.53.09.07.5-.3.52-.39Z"/>
    <path class="cls-3" d="M85.05,65.87l-2.1-.27.51-1.2c.65-.67,1.78,1.23,1.59,1.46Z"/>
    <path class="cls-3" d="M55.04,52.18c.16.13-.86,3.34-.73,4.05.09.47,1.55,1.28,1.26,2.27l.52-.17c1.18-5.06,7.62-.66,4.35,2.29-.72.64-1.55.35-1.99.64-.35.24-.19,1.09-.78,1.19.9-1.81-1.05-1.31-1.32-2.9.96,1.05,2.55,1.94,3.79.77,2.63-2.48-2.01-5.97-3.69-2.36l.69,1.06-.92-.42-.6.23c-.18,1.35-1.15,1.96-2.15,2.7l.51,1.19-1.46-.25,1.2-10.28h1.32Z"/>
    <path class="cls-3" d="M61.36,66.92l.13.79-1.19.39,1.18,1.71.4-1.05.66.26.09.77-1.81.82c.23-.5-1.19-2.82-1.58-2.37l-.05,3.11-.74.31-.79-1.05.26,1.31-1.02.25-1.61-2.87,1.05-.27c-.21.27.57,2.72,1.05,2.1l-.52-2.36.79-.28c-.06.85.24,1.72,1.05,2.11-.07-.51.13-1.21,0-1.67-.07-.26-.78-.04-.53-.69l3.16-1.32Z"/>
    <polygon class="cls-3" points="70.84 51.92 70.84 54.29 67.68 54.55 67.42 52.18 70.84 51.92"/>
    <path class="cls-3" d="M57.94,40.33l-.93-.26-.13-1.06-.53,1.06-1.05-.39c.64-.88.87-1.96.79-3.03l2.26.78c.06,1.13-1.13,1.84-.42,2.91Z"/>
    <path class="cls-3" d="M44.25,38.49c-.35,1.02,1.21,1.96,1.05,2.76-.2,1.02-1.73-.99-2.11-.65l1.06,1.44-1.05.4c.38-.92-1.7-2.36-1.32-2.89.43-.61,1.68.55,2.1.79.39-.44-2.07-1.66.26-1.84Z"/>
    <path class="cls-3" d="M40.64,43.94c-.16-.13-1.4-1.73-1.37-1.86l1.43-1.23c.32,0,1.56,1.17,1.73,1.44.75,1.26-.71,2.54-1.78,1.64ZM41.88,43.49c.37-.4-.98-1.93-1.44-1.84-1.06.63,1.24,2.06,1.44,1.84Z"/>
    <path class="cls-3" d="M51.62,36.39l.24,1.69-1.29.42.27,1.05-.92.27-.3-.55c.47-.92-.26-1.72-.37-2.61l2.37-.26Z"/>
    <path class="cls-3" d="M54.74,39.51l-2.07.04v-3.16s2.26.25,2.26.25l-.19,2.88ZM54.25,36.91h-.79s-.26,2.11-.26,2.11h1.05s0-2.11,0-2.11Z"/>
    <path class="cls-3" d="M67.42,49.82l.43.81,2.46-.81.27,1.05c-2.1-.17-3.68,1.82-3.67-1.55l2.87-1.07c.84,1.71-1.28,1.17-2.37,1.58Z"/>
    <path class="cls-3" d="M53.99,72.71c-1.18-.16-.71-1.35-1.57-1.84l.26,1.84h-1.05c.29-1.13.59-2.19-.26-3.15,1.48-.33,1.18.98,2.1,1.58l-.26-1.84.93.26-.15,3.16Z"/>
    <path class="cls-3" d="M35.3,52.71l-.52,1.58c1.36-.23,1.35-2.67,2.87-.87l-.27,1.63-1.02.03c-.05-.97,1.52-.58.39-1.57-1.5,2.37-2.78,2.08-2.5-.79h1.05Z"/>
    <path class="cls-3" d="M48.46,38.23c-1.05.17-.54-.81-1.58-.26-.21.92,1.28.43,1.77.85,1.22,1.03-.73,2.03-1.77,1.78v-1.05c.15-.18,1.57.85,1.32-.26-1.34-.05-2.05-.09-2.11-1.58l1.96-.51.41,1.03Z"/>
    <path class="cls-3" d="M62.15,41.39l.53,1.05c-.65-2.62.06-3.62,2.1-1.45l-.65.65-.66-1.18-.52.27.71,1.59-.88.9-1.67-1.17,1.05-.66Z"/>
    <path class="cls-3" d="M51.1,69.55l-.38,2.91c-.4.6-1.64,0-2.24-.02l.53-3.14,2.1.26ZM50.57,70.09l-1.05-.27-.26,2.37.93-.26.39-1.84Z"/>
    <path class="cls-3" d="M41.36,65.08l-1.05.26c.25-.64.16-1.04-.52-1.31-.03,1,.35,2.34-.93,2.65-.5,0-1.25-1.23-1.2-1.7l.81-.42v1.32s.79,0,.79,0c-.13-1.23-.57-1.82.66-2.62l1.45,1.83Z"/>
    <path class="cls-3" d="M65.05,63.77c.41.78,1.21,1.33,2.11,1.32l-.53,1.31-1.97-1.84-.13,1.05-1.04-.65,1.7-2.24.92.92-1.05.13Z"/>
    <path class="cls-3" d="M62.15,39.03l-.66,1.05-.26-.79c-.5-.81-1.21,1.72-1.19,2.11-2.09,0-.23-1.56.26-2.5l-1.31.13.87-1.02,2.29,1.03Z"/>
    <path class="cls-3" d="M63.47,65.34l.14.79c-.23.35-1.33-.28-1.19.79l1.94-.2.7.86c-.04.79-2.04,1.92-2.11.79-.03-.48,1.59.1,1.31-.92l-1.86.12c-.43-.18-.69-1.02-.46-1.4l1.53-.83Z"/>
    <path class="cls-3" d="M67.68,44.55l-1.05.26.26-.91-.64-.4-1.44,1.18.25.67c1.3-.56,1.23.5.14.79-1.9-1.89-.51-2.41,1.27-3.39l1.22,1.81Z"/>
    <path class="cls-3" d="M38.99,44.28l-1.05.4c.66.95,2.34,2.05,1.84.13l1.05.39-.81,1.42c-.66.47-2.3-1.02-2.74-1.54-.25-.56,1.63-2.61,1.72-.8Z"/>
    <path class="cls-3" d="M38.73,48.76l-.93,2.1c-.91-.47-1.68-.93-2.76-.79l.27-1.31,2.49,1.06-.65-.92c.47-.67.97-.24,1.58-.13Z"/>
    <path class="cls-3" d="M68.73,46.65l-2.06.57-.04.75c1.5-.58,1.1.62-.12.8l-.92-1.73c-.1-.58.1-.3.38-.39.95-.3,1.72-.43,2.38-1.31l.4,1.31Z"/>
    <path class="cls-3" d="M48.47,69.03l-.27,1.05c-1.19-1.78-1.98-.19-1.84,1.32l1.31-.26v.79c-3.23.09-1.59-1.41-1.31-3.42l2.1.53Z"/>
    <path class="cls-3" d="M43.73,67.18c-1.32-.24-2.31,3.04-.53,1.58l-.26,1.32-1.83-1.18c.51-.47.97-.97,1.33-1.57s.02-1.3,1.04-.8l.26.66Z"/>
    <path class="cls-3" d="M39.25,47.18c.26.31-.29,1.34-.77,1.03-.02-.01.02-.37-.2-.51-.63-.4-1.37-.56-2.06-.78l.14-1.06c.19-.15,1.51.91,1.92,1.11.32.16.94.17.97.21Z"/>
    <path class="cls-3" d="M37.94,51.39l-.27,1.05c-1.08-.41-1.95-.69-3.16-.53-.15-2.02,2.08.04,3.42-.52Z"/>
    <path class="cls-3" d="M42.41,66.13c-.94.22-1.71,1.18-1.84,2.11l-1.05-.66c1-.32,1.72-1.25,2.11-2.23l.78.78Z"/>
    <path class="cls-3" d="M45.82,68.49c-1.35.15-.59,2.9-2.09,2.12.12-1.09,1.67-1.74,1.05-2.89l.79.13.24.65Z"/>
    <path class="cls-3" d="M22.93,67.18l-.79-.13c.45-.65.49-1.46.72-2.19.11-.35-.1-.7.46-.58,1.95,1.55-1.19,1.45-.39,2.89Z"/>
  </g>
  <path class="cls-1" d="M41.88,43.49c-.2.22-2.5-1.21-1.44-1.84.46-.09,1.81,1.44,1.44,1.84Z"/>
  <polygon class="cls-1" points="54.25 36.91 54.25 39.02 53.2 39.02 53.47 36.91 54.25 36.91"/>
  <polygon class="cls-1" points="50.57 70.09 50.18 71.93 49.26 72.19 49.52 69.82 50.57 70.09"/>
</svg>